<svg xmlns="http://www.w3.org/2000/svg" width="16" height="16" viewBox="0 0 16 16">
    <path data-name="사각형 16730" style="fill:none" d="M0 0h16v16H0z"/>
    <g data-name="그룹 19240">
        <g data-name="그룹 19237" transform="translate(.653 1.447)">
            <circle data-name="타원 1513" cx="5.055" cy="5.055" r="5.055" transform="translate(.735)" style="fill:#ffad13"/>
            <path data-name="패스 8958" d="m1.584 0 1.463 2.36L0 2.245z" transform="rotate(-135 3.197 4.671)" style="fill:#ffad13"/>
        </g>
        <path data-name="합치기 198" d="M5.749 10.659a4.905 4.905 0 1 0-4.5-2.937l.113.257-.387 1.652 1.414-.281.3.243a4.858 4.858 0 0 0 3.056 1.066m0 .839a5.725 5.725 0 0 1-3.578-1.249l-1.455.291a.559.559 0 0 1-.654-.677l.425-1.8A5.75 5.75 0 1 1 5.749 11.5z" transform="translate(.704 .941)" style="fill:#333"/>
        <g data-name="그룹 19238" transform="translate(3.767 3.452)">
            <circle data-name="타원 1512" cx="5.055" cy="5.055" r="5.055" transform="translate(.6 .666)" style="fill:#ffcc41"/>
            <path data-name="선 2095" d="M4.6.089H-.33A.42.42 0 0 1-.75-.33a.42.42 0 0 1 .42-.42H4.6a.42.42 0 0 1 .42.42.42.42 0 0 1-.42.419z" transform="translate(3.92 5.32)" style="fill:#333"/>
            <path data-name="선 2096" d="M2.955.089H-.33A.42.42 0 0 1-.75-.33a.42.42 0 0 1 .42-.42h3.285a.42.42 0 0 1 .42.42.42.42 0 0 1-.42.419z" transform="translate(3.92 6.962)" style="fill:#333"/>
            <path data-name="다각형 49" d="M1.352 0 2.7 2.889H0z" transform="rotate(135 3.781 7.247)" style="fill:#ffcc41"/>
            <path data-name="합치기 199 - 윤곽선" d="M5.749.839a4.91 4.91 0 1 0 2.427 9.178l.258-.147 1.834.3-.45-1.65.177-.3A4.911 4.911 0 0 0 5.749.839m0-.839a5.75 5.75 0 0 1 4.971 8.638l.472 1.73a.56.56 0 0 1-.63.7l-1.97-.322A5.749 5.749 0 1 1 5.749 0z" style="fill:#333"/>
        </g>
    </g>
</svg>
