<?xml version="1.0" encoding="iso-8859-1"?>
<!-- Uploaded to: SVG Repo, www.svgrepo.com, Generator: SVG Repo Mixer Tools -->
<svg height="800px" width="800px" version="1.1" id="Capa_1" xmlns="http://www.w3.org/2000/svg" xmlns:xlink="http://www.w3.org/1999/xlink" 
	 viewBox="0 0 107.226 107.226" xml:space="preserve">
<g>
	<g>
		<path style="fill:#010002;" d="M89.877,3.443L93.149,0H29.316L14.077,11.009v96.217h71.255v-2.881v-1.195v-1.195v-5.927V11.009
			H26.074h-4.907l10.472-7.566H89.877z M51.319,104.094h-5.368v-5.368h5.368V104.094z M79.055,18.206V95.82H19.671V18.206H79.055z
			 M71.786,77.7H26.26v-3.579h45.527V77.7z M71.368,90.226H25.841v-3.579h45.527C71.368,86.648,71.368,90.226,71.368,90.226z
			 M71.36,65.547H26.686v-3.579H71.36V65.547z M56.956,53.915h-16.81l-7.909-15.908l2.566-1.27l7.118,14.323h13.26l7.523-15.121
			h6.424v2.867h-4.649L56.956,53.915z M55.571,58.013c-0.072,1.496-1.342,2.67-2.852,2.602s-2.67-1.349-2.609-2.86
			c0.072-1.503,1.349-2.663,2.852-2.595C54.465,55.229,55.631,56.503,55.571,58.013z M47.747,58.013
			c-0.068,1.496-1.349,2.67-2.852,2.602s-2.67-1.349-2.605-2.86c0.075-1.503,1.349-2.663,2.852-2.595
			C46.659,55.232,47.819,56.503,47.747,58.013z M46.266,27.843h1.993h2.004l5.823,16.459H54.25h-1.818l-1.117-3.353h-6.234
			l-1.084,3.353h-1.768h-1.782L46.266,27.843z M46.029,38.125h4.373l-2.187-6.621l0,0L46.029,38.125z"/>
	</g>
</g>
</svg>