<?xml version="1.0" encoding="iso-8859-1"?>
<!-- Uploaded to: SVG Repo, www.svgrepo.com, Generator: SVG Repo Mixer Tools -->
<svg version="1.1" id="Layer_1" xmlns="http://www.w3.org/2000/svg" xmlns:xlink="http://www.w3.org/1999/xlink" 
	 viewBox="0 0 511.992 511.992" xml:space="preserve">
<rect x="240" y="358.988" width="32" height="77.528"/>
<polygon points="155.904,456.428 166.568,424.428 345.432,424.428 356.096,456.428 "/>
<path style="fill:#EAEAEA;" d="M37.296,362.62C21.144,362.62,8,349.476,8,333.316V92.868c0-16.16,13.144-29.296,29.296-29.296
	h437.408c16.16,0,29.296,13.144,29.296,29.296v240.456c0,16.16-13.144,29.296-29.296,29.296H37.296z"/>
<path d="M474.704,71.564c11.744,0,21.296,9.552,21.296,21.296v240.456c0,11.744-9.552,21.296-21.296,21.296H37.296
	C25.552,354.612,16,345.06,16,333.316V92.86c0-11.744,9.552-21.296,21.296-21.296H474.704 M474.704,55.564H37.296
	C16.784,55.564,0,72.348,0,92.86v240.456c0,20.512,16.784,37.296,37.296,37.296h437.4c20.512,0,37.296-16.784,37.296-37.296V92.86
	C512,72.348,495.216,55.564,474.704,55.564L474.704,55.564z"/>
<path d="M314.936,163.164h-15.288v-34.512c0-4.216-3.424-7.648-7.648-7.648h-71.992c-4.216,0-7.648,3.424-7.648,7.648v34.512
	h-15.288v-34.512c0-12.648,10.288-22.936,22.936-22.936H292c12.648,0,22.936,10.288,22.936,22.936V163.164z"/>
<path style="fill:#FF583E;" d="M168.032,154.204l-34.36,165.96h244.672l-34.36-165.96H168.032z"/>
<path d="M219.048,212.82c-7.368,0-13.344-5.984-13.344-13.36s5.976-13.36,13.344-13.36s13.344,5.984,13.344,13.36
	C232.392,206.836,226.416,212.82,219.048,212.82z M292.952,212.82c-7.368,0-13.344-5.984-13.344-13.36s5.976-13.36,13.344-13.36
	s13.344,5.984,13.344,13.36C306.304,206.836,300.328,212.82,292.952,212.82z"/>
</svg>