<?xml version="1.0" encoding="iso-8859-1"?>
<!-- Uploaded to: SVG Repo, www.svgrepo.com, Generator: SVG Repo Mixer Tools -->
<svg version="1.1" id="Layer_1" xmlns="http://www.w3.org/2000/svg" xmlns:xlink="http://www.w3.org/1999/xlink" 
	 viewBox="0 0 512 512" xml:space="preserve">
<path style="fill:#E5E5E5;" d="M256,0C114.616,0,0,114.616,0,256s114.616,256,256,256s256-114.616,256-256S397.384,0,256,0z"/>
<path d="M320.968,424H191.032c-23.096,0-42-18.896-42-42V130c0-23.096,18.904-42,42-42h129.936c23.104,0,42,18.904,42,42v252
	C362.968,405.104,344.072,424,320.968,424z"/>
<g>
	<rect x="164.12" y="127.648" style="fill:#FFFFFF;" width="183.752" height="247.352"/>
	<circle style="fill:#FFFFFF;" cx="256" cy="107.8" r="7.872"/>
	<path style="fill:#FFFFFF;" d="M273.808,408.432H238.2c-4.92,0-8.904-3.984-8.904-8.904s3.984-8.904,8.904-8.904h35.608
		c4.92,0,8.904,3.984,8.904,8.904S278.72,408.432,273.808,408.432z"/>
</g>
<g>
	<rect x="187.232" y="316.504" style="fill:#F00000;" width="137.528" height="8"/>
	<rect x="202.496" y="334.16" style="fill:#F00000;" width="107.016" height="8"/>
	<rect x="192.96" y="161.872" style="fill:#F00000;" width="126" height="126"/>
</g>
<g>
	<path style="fill:#FFFFFF;" d="M253.504,241.656v-14.928c-4.656-1.328-8.072-3.344-10.248-6.04
		c-2.168-2.696-3.256-5.968-3.256-9.816c0-3.896,1.232-7.168,3.688-9.816c2.456-2.648,5.728-4.176,9.816-4.576v-3.528h5.168v3.528
		c3.776,0.448,6.784,1.744,9.016,3.864c2.232,2.128,3.656,4.968,4.272,8.536l-9.016,1.176c-0.544-2.8-1.976-4.704-4.272-5.704
		v13.936c5.696,1.544,9.584,3.544,11.648,6.008c2.064,2.456,3.104,5.608,3.104,9.456c0,4.296-1.304,7.92-3.904,10.872
		c-2.6,2.944-6.216,4.752-10.848,5.416v6.664h-5.168v-6.488c-4.112-0.496-7.448-2.032-10.016-4.6
		c-2.568-2.56-4.208-6.184-4.92-10.864l9.304-1c0.376,1.904,1.088,3.544,2.136,4.92C251.056,240.04,252.224,241.04,253.504,241.656z
		 M253.504,204.24c-1.4,0.472-2.52,1.28-3.352,2.424c-0.832,1.136-1.248,2.4-1.248,3.776c0,1.256,0.376,2.432,1.136,3.512
		c0.76,1.08,1.912,1.952,3.456,2.616V204.24H253.504z M258.672,242.152c1.776-0.336,3.232-1.16,4.344-2.48
		c1.12-1.32,1.672-2.872,1.672-4.648c0-1.592-0.472-2.96-1.408-4.112s-2.472-2.032-4.616-2.656L258.672,242.152L258.672,242.152z"/>
	<path style="fill:#FFFFFF;" d="M295.84,235.984v-9.904c-3.088-0.88-5.352-2.216-6.792-4.008c-1.44-1.784-2.16-3.96-2.16-6.512
		c0-2.584,0.816-4.752,2.448-6.512c1.632-1.752,3.8-2.768,6.512-3.032v-2.336h3.424v2.336c2.504,0.296,4.496,1.152,5.976,2.56
		s2.424,3.296,2.832,5.656l-5.976,0.784c-0.36-1.856-1.304-3.12-2.832-3.784v9.24c3.776,1.024,6.352,2.352,7.728,3.984
		c1.368,1.632,2.056,3.72,2.056,6.272c0,2.848-0.864,5.256-2.592,7.208c-1.728,1.952-4.12,3.152-7.192,3.592v4.416h-3.432v-4.304
		c-2.728-0.328-4.936-1.344-6.64-3.048c-1.704-1.696-2.792-4.104-3.264-7.208l6.168-0.664c0.248,1.264,0.72,2.344,1.416,3.264
		C294.216,234.912,294.984,235.568,295.84,235.984z M295.84,211.176c-0.928,0.312-1.672,0.848-2.224,1.608
		c-0.552,0.752-0.824,1.592-0.824,2.504c0,0.832,0.248,1.608,0.752,2.328s1.264,1.296,2.296,1.736V211.176z M299.264,236.312
		c1.176-0.224,2.144-0.768,2.88-1.64c0.744-0.872,1.112-1.904,1.112-3.08c0-1.056-0.312-1.96-0.936-2.728
		c-0.624-0.76-1.64-1.352-3.056-1.76V236.312z"/>
	<path style="fill:#FFFFFF;" d="M212.856,235.984v-9.904c-3.088-0.88-5.352-2.216-6.792-4.008c-1.44-1.784-2.16-3.96-2.16-6.512
		c0-2.584,0.816-4.752,2.448-6.512c1.632-1.752,3.8-2.768,6.512-3.032v-2.336h3.424v2.336c2.504,0.296,4.496,1.152,5.976,2.56
		s2.424,3.296,2.832,5.656l-5.976,0.784c-0.36-1.856-1.304-3.12-2.832-3.784v9.24c3.776,1.024,6.352,2.352,7.728,3.984
		c1.368,1.632,2.056,3.72,2.056,6.272c0,2.848-0.864,5.256-2.592,7.208c-1.728,1.952-4.12,3.152-7.192,3.592v4.416h-3.424v-4.304
		c-2.728-0.328-4.936-1.344-6.64-3.048c-1.704-1.696-2.792-4.104-3.264-7.208l6.168-0.664c0.248,1.264,0.72,2.344,1.416,3.264
		C211.232,234.912,212.008,235.568,212.856,235.984z M212.856,211.176c-0.928,0.312-1.672,0.848-2.224,1.608
		c-0.552,0.752-0.824,1.592-0.824,2.504c0,0.832,0.248,1.608,0.752,2.328s1.264,1.296,2.296,1.736V211.176z M216.28,236.312
		c1.176-0.224,2.144-0.768,2.88-1.64c0.744-0.872,1.112-1.904,1.112-3.08c0-1.056-0.312-1.96-0.936-2.728
		c-0.624-0.76-1.64-1.352-3.056-1.76V236.312z"/>
</g>
</svg>