<?xml version="1.0" encoding="iso-8859-1"?>
<!-- Uploaded to: SVG Repo, www.svgrepo.com, Generator: SVG Repo Mixer Tools -->
<svg version="1.1" id="Layer_1" xmlns="http://www.w3.org/2000/svg" xmlns:xlink="http://www.w3.org/1999/xlink" 
	 viewBox="0 0 512.001 512.001" xml:space="preserve">
<rect x="25.188" y="55.34" style="fill:#FFFFFF;" width="460.473" height="264.423"/>
<g>
	<rect x="254.286" y="55.34" style="fill:#E1E1E3;" width="231.38" height="264.423"/>
	<rect x="34.479" y="55.34" style="fill:#E1E1E3;" width="450.117" height="27.332"/>
</g>
<rect x="199.038" y="333.233" style="fill:#57565C;" width="113.92" height="104.588"/>
<path style="fill:#3E3E42;" d="M322.661,428.62H189.34c-15.234,0-27.584,12.349-27.584,27.584l0,0
	c0,15.234,12.349,27.584,27.584,27.584h133.32c15.234,0,27.584-12.349,27.584-27.584l0,0
	C350.244,440.969,337.895,428.62,322.661,428.62z"/>
<path style="fill:#F53000;" d="M161.155,165.727c-2.788,0-5.411,1.322-7.072,3.562c-1.661,2.24-2.163,5.136-1.35,7.804
	l28.296,92.974c1.129,3.708,4.544,6.235,8.421,6.235c24.424,0,108.529,0,133.103,0c3.871,0,7.294-2.531,8.421-6.235l28.296-92.974
	c0.811-2.668,0.311-5.563-1.349-7.803s-4.285-3.563-7.074-3.563C313.44,165.727,198.584,165.727,161.155,165.727z"/>
<path style="fill:#5B5B5B;" d="M222.556,192.068c-4.412,0-8.824-1.683-12.19-5.05l-60.51-60.51c-6.733-6.733-6.733-17.648,0-24.38
	c6.732-6.733,17.648-6.733,24.38,0l60.51,60.51c6.733,6.733,6.733,17.648,0,24.38C231.379,190.386,226.967,192.068,222.556,192.068z
	"/>
<path style="fill:#8A8A91;" d="M477.025,28.214H34.976C15.689,28.214,0,43.903,0,63.19v278.032
	c0,19.285,15.689,34.976,34.976,34.976h442.049c19.285,0,34.976-15.689,34.976-34.976V63.19
	C512,43.903,496.311,28.214,477.025,28.214z M34.976,62.693h442.049c0.274,0,0.496,0.223,0.496,0.497v243.616H34.479V63.19
	C34.479,62.916,34.701,62.693,34.976,62.693z"/>
<path style="fill:#BF2717;" d="M357.919,169.29c-1.661-2.24-4.285-3.563-7.074-3.563c-18.798,0-58.298,0-96.561,0V276.3
	c27.323,0,55.9,0,68.266,0c3.871,0,7.294-2.531,8.421-6.234l28.296-92.974C360.081,174.425,359.58,171.53,357.919,169.29z"/>
<path style="fill:#3F3F3F;" d="M289.446,192.068c-4.412,0-8.824-1.683-12.19-5.049c-6.733-6.733-6.733-17.648,0-24.38l60.509-60.51
	c6.732-6.733,17.648-6.733,24.38,0c6.733,6.733,6.733,17.648,0,24.38l-60.509,60.51C298.27,190.386,293.858,192.068,289.446,192.068
	z"/>
<path style="fill:#797882;" d="M477.025,28.214H254.286v34.479h222.739c0.274,0,0.496,0.223,0.496,0.497v243.616H254.286v69.392
	h222.739c19.285,0,34.976-15.689,34.976-34.976V63.19C512,43.903,496.311,28.214,477.025,28.214z"/>
<path style="fill:#2D2E30;" d="M322.661,428.62h-68.375v55.167h68.375c15.234,0,27.584-12.349,27.584-27.584l0,0
	C350.244,440.969,337.895,428.62,322.661,428.62z"/>
</svg>