<?xml version="1.0" encoding="iso-8859-1"?>
<!-- Uploaded to: SVG Repo, www.svgrepo.com, Generator: SVG Repo Mixer Tools -->
<svg height="800px" width="800px" version="1.1" id="Layer_1" xmlns="http://www.w3.org/2000/svg" xmlns:xlink="http://www.w3.org/1999/xlink" 
	 viewBox="0 0 511.999 511.999" xml:space="preserve">
<polygon style="fill:#FFAD61;" points="306.344,48.204 10.199,48.204 10.199,216.02 208.478,216.02 273.769,282.159 273.769,216.02 
	306.344,216.02 "/>
<path style="fill:#D35B38;" d="M273.152,248.484c-23.547,0-43.908,13.605-53.676,33.377c-9.769-19.772-30.129-33.377-53.676-33.377
	c-33.053,0-59.846,26.794-59.846,59.846c0,40.291,59.846,94.397,59.846,94.397l53.676,53.059l53.676-53.059
	c0,0,59.846-54.105,59.846-94.397C332.998,275.278,306.204,248.484,273.152,248.484z"/>
<path style="fill:#BCC987;" d="M456.157,463.795H318.813c-25.208,0-45.643-20.435-45.643-45.643V248.684h228.631v169.467
	C501.801,443.36,481.366,463.795,456.157,463.795z"/>
<g>
	<path style="fill:#4D3D36;" d="M248.103,121.581h6.91c5.632,0,10.199-4.566,10.199-10.199c0-5.633-4.567-10.199-10.199-10.199
		h-6.91c-5.633,0-10.199,4.566-10.199,10.199C237.904,117.015,242.47,121.581,248.103,121.581z"/>
	<path style="fill:#4D3D36;" d="M60.543,121.581h148.073c5.633,0,10.199-4.566,10.199-10.199c0-5.633-4.566-10.199-10.199-10.199
		H60.543c-5.633,0-10.199,4.566-10.199,10.199C50.344,117.015,54.91,121.581,60.543,121.581z"/>
	<path style="fill:#4D3D36;" d="M265.212,156.791c0-5.633-4.567-10.199-10.199-10.199H60.543c-5.633,0-10.199,4.566-10.199,10.199
		c0,5.633,4.566,10.199,10.199,10.199h194.469C260.646,166.99,265.212,162.424,265.212,156.791z"/>
	<path style="fill:#4D3D36;" d="M183.692,296.404h-8.434v-8.434c0-5.633-4.566-10.199-10.199-10.199
		c-5.633,0-10.199,4.566-10.199,10.199v8.434h-8.434c-5.633,0-10.199,4.566-10.199,10.199s4.566,10.199,10.199,10.199h8.434v8.434
		c0,5.633,4.566,10.199,10.199,10.199c5.633,0,10.199-4.566,10.199-10.199v-8.434h8.434c5.633,0,10.199-4.566,10.199-10.199
		S189.324,296.404,183.692,296.404z"/>
	<path style="fill:#4D3D36;" d="M501.801,238.485h-59.819v-21.714c0-30.05-24.448-54.497-54.496-54.497
		c-30.05,0-54.497,24.447-54.497,54.497v21.714h-49.02V226.22h22.376c5.632,0,10.199-4.566,10.199-10.199V48.204
		c0-5.633-4.567-10.199-10.199-10.199H10.199C4.566,38.005,0,42.571,0,48.204V216.02c0,5.633,4.566,10.199,10.199,10.199h194.015
		l26.196,26.536c-3.991,3.078-7.66,6.601-10.935,10.525c-13.112-15.712-32.534-24.995-53.676-24.995
		c-38.623,0-70.045,31.423-70.045,70.045c0,19.098,10.827,42.215,32.182,68.708c14.586,18.096,28.997,31.405,30.845,33.092
		l53.524,52.909c1.987,1.963,4.578,2.946,7.17,2.946c2.592,0,5.183-0.982,7.17-2.946l36.951-36.526
		c4.048,26.839,27.266,47.481,55.215,47.481h137.345c30.791,0,55.843-25.051,55.843-55.843V248.685
		C512,243.052,507.433,238.485,501.801,238.485z M353.386,216.771c0-18.802,15.297-34.099,34.099-34.099
		c18.802,0,34.098,15.297,34.098,34.099v21.714h-68.196v-21.714H353.386z M215.736,208.855c-1.916-1.941-4.53-3.034-7.259-3.034
		H20.398V58.403h275.747V205.82h-22.376c-5.632,0-10.199,4.566-10.199,10.199v22.935c-5.026,0.681-9.904,1.891-14.572,3.593
		L215.736,208.855z M219.476,441.444l-46.506-45.972c-0.108-0.106-0.218-0.211-0.33-0.312
		c-15.712-14.204-56.487-57.493-56.487-86.831c0-27.376,22.271-49.647,49.647-49.647c19.028,0,36.092,10.612,44.533,27.695
		c1.72,3.479,5.264,5.681,9.144,5.681s7.425-2.202,9.144-5.681c6.9-13.965,19.563-23.601,34.35-26.656V398.45L219.476,441.444z
		 M491.602,418.152c0,19.544-15.901,35.444-35.444,35.444H318.813c-19.545,0-35.445-15.901-35.445-35.444V258.884h49.62v27.906
		c0,5.633,4.567,10.199,10.199,10.199c5.632,0,10.199-4.566,10.199-10.199v-27.906h68.196v27.906
		c0,5.633,4.567,10.199,10.199,10.199c5.632,0,10.199-4.566,10.199-10.199v-27.906h49.621V418.152z"/>
</g>
</svg>